<?xml version="1.0" encoding="UTF-8" standalone="no"?>
<!-- Created with Inkscape (http://www.inkscape.org/) -->

<svg
   xmlns:dc="http://purl.org/dc/elements/1.1/"
   xmlns:cc="http://creativecommons.org/ns#"
   xmlns:rdf="http://www.w3.org/1999/02/22-rdf-syntax-ns#"
   xmlns:svg="http://www.w3.org/2000/svg"
   xmlns="http://www.w3.org/2000/svg"
   xmlns:sodipodi="http://sodipodi.sourceforge.net/DTD/sodipodi-0.dtd"
   xmlns:inkscape="http://www.inkscape.org/namespaces/inkscape"
   width="210mm"
   height="297mm"
   id="svg6229"
   version="1.1"
   inkscape:version="0.48.5 r10040"
   sodipodi:docname="Neues Dokument 15">
  <defs
     id="defs6231" />
  <sodipodi:namedview
     id="base"
     pagecolor="#ffffff"
     bordercolor="#666666"
     borderopacity="1.0"
     inkscape:pageopacity="0.0"
     inkscape:pageshadow="2"
     inkscape:zoom="1.9960012"
     inkscape:cx="288.62085"
     inkscape:cy="469.13278"
     inkscape:document-units="px"
     inkscape:current-layer="layer1"
     showgrid="true"
     inkscape:window-width="1598"
     inkscape:window-height="879"
     inkscape:window-x="0"
     inkscape:window-y="19"
     inkscape:window-maximized="0">
    <inkscape:grid
       type="xygrid"
       id="grid6237"
       empspacing="5"
       visible="true"
       enabled="false"
       snapvisiblegridlinesonly="true"
       units="mm"
       spacingx="1mm"
       spacingy="1mm" />
    <inkscape:grid
       type="axonomgrid"
       id="grid6910"
       units="mm"
       empspacing="5"
       visible="true"
       enabled="true"
       snapvisiblegridlinesonly="true" />
  </sodipodi:namedview>
  <metadata
     id="metadata6234">
    <rdf:RDF>
      <cc:Work
         rdf:about="">
        <dc:format>image/svg+xml</dc:format>
        <dc:type
           rdf:resource="http://purl.org/dc/dcmitype/StillImage" />
        <dc:title></dc:title>
      </cc:Work>
    </rdf:RDF>
  </metadata>
  <g
     inkscape:label="Ebene 1"
     inkscape:groupmode="layer"
     id="layer1">
    <path
       sodipodi:type="arc"
       style="fill:#000000;fill-opacity:0.49803922;stroke:#000000;stroke-opacity:1"
       id="path6239"
       sodipodi:cx="318.89764"
       sodipodi:cy="556.29919"
       sodipodi:rx="35.433071"
       sodipodi:ry="35.433071"
       d="m 336.61418,586.98513 a 35.433071,35.433071 0 1 1 17.71654,-30.68594 l -35.43308,0 z"
       sodipodi:start="1.0471976"
       sodipodi:end="6.2831853"
       transform="matrix(0,1,-1,0,878.50156,175.39367)" />
    <path
       transform="matrix(0,1,-1,0,875.43297,180.70863)"
       sodipodi:type="arc"
       style="fill:#0000ff;fill-opacity:0.49803922;stroke:#000000;stroke-opacity:1"
       id="path6239-6"
       sodipodi:cx="318.89764"
       sodipodi:cy="556.29919"
       sodipodi:rx="35.433071"
       sodipodi:ry="35.433071"
       d="m 354.33072,556.29919 a 35.433071,35.433071 0 0 1 -17.71654,30.68594 l -17.71654,-30.68594 z"
       sodipodi:start="0"
       sodipodi:end="1.0471976" />
    <path
       transform="matrix(0,1,1,0,-326.15465,175.39368)"
       sodipodi:type="arc"
       style="fill:#000000;fill-opacity:0.49803922;stroke:#000000;stroke-opacity:1"
       id="path6239-3"
       sodipodi:cx="318.89764"
       sodipodi:cy="556.29919"
       sodipodi:rx="35.433071"
       sodipodi:ry="35.433071"
       d="m 336.61418,586.98513 a 35.433071,35.433071 0 1 1 17.71654,-30.68594 l -35.43308,0 z"
       sodipodi:start="1.0471976"
       sodipodi:end="6.2831853" />
    <path
       transform="matrix(0,1,1,0,-323.08605,180.70863)"
       sodipodi:type="arc"
       style="fill:#ff0004;fill-opacity:0.49803922;stroke:#000000;stroke-opacity:1"
       id="path6239-6-3"
       sodipodi:cx="318.89764"
       sodipodi:cy="556.29919"
       sodipodi:rx="35.433071"
       sodipodi:ry="35.433071"
       d="m 354.33072,556.29919 a 35.433071,35.433071 0 0 1 -17.71654,30.68594 l -17.71654,-30.68594 z"
       sodipodi:start="0"
       sodipodi:end="1.0471976" />
    <path
       sodipodi:type="arc"
       style="fill:#000000;fill-opacity:0.49803922;stroke:#000000;stroke-opacity:1"
       id="path6239-5"
       sodipodi:cx="318.89764"
       sodipodi:cy="556.29919"
       sodipodi:rx="35.433071"
       sodipodi:ry="35.433071"
       d="m 336.61418,586.98513 a 35.433071,35.433071 0 1 1 17.71654,-30.68594 l -35.43308,0 z"
       sodipodi:start="1.0471976"
       sodipodi:end="6.2831853"
       transform="matrix(0,-1,-1,0,878.50156,972.63777)" />
    <path
       transform="matrix(0,-1,-1,0,875.43297,967.32282)"
       sodipodi:type="arc"
       style="fill:#00ffff;fill-opacity:0.49803922;stroke:#000000;stroke-opacity:1"
       id="path6239-6-8"
       sodipodi:cx="318.89764"
       sodipodi:cy="556.29919"
       sodipodi:rx="35.433071"
       sodipodi:ry="35.433071"
       d="m 354.33072,556.29919 a 35.433071,35.433071 0 0 1 -17.71654,30.68594 l -17.71654,-30.68594 z"
       sodipodi:start="0"
       sodipodi:end="1.0471976" />
    <path
       transform="matrix(0,-1,1,0,-326.15465,972.63778)"
       sodipodi:type="arc"
       style="fill:#000000;fill-opacity:0.49803922;stroke:#000000;stroke-opacity:1"
       id="path6239-3-5"
       sodipodi:cx="318.89764"
       sodipodi:cy="556.29919"
       sodipodi:rx="35.433071"
       sodipodi:ry="35.433071"
       d="m 336.61418,586.98513 a 35.433071,35.433071 0 1 1 17.71654,-30.68594 l -35.43308,0 z"
       sodipodi:start="1.0471976"
       sodipodi:end="6.2831853" />
    <path
       transform="matrix(0,-1,1,0,-323.08605,967.32282)"
       sodipodi:type="arc"
       style="fill:#ff00ff;fill-opacity:0.49803922;stroke:#000000;stroke-opacity:1"
       id="path6239-6-3-8"
       sodipodi:cx="318.89764"
       sodipodi:cy="556.29919"
       sodipodi:rx="35.433071"
       sodipodi:ry="35.433071"
       d="m 354.33072,556.29919 a 35.433071,35.433071 0 0 1 -17.71654,30.68594 l -17.71654,-30.68594 z"
       sodipodi:start="0"
       sodipodi:end="1.0471976" />
    <path
       transform="matrix(-0.8660254,-0.5,-0.5,0.8660254,922.55433,251.69532)"
       sodipodi:type="arc"
       style="fill:#000000;fill-opacity:0.49803922;stroke:#000000;stroke-opacity:1"
       id="path6239-3-5-8-3"
       sodipodi:cx="318.89764"
       sodipodi:cy="556.29919"
       sodipodi:rx="35.433071"
       sodipodi:ry="35.433071"
       d="m 336.61418,586.98513 a 35.433071,35.433071 0 1 1 17.71654,-30.68594 l -35.43308,0 z"
       sodipodi:start="1.0471976"
       sodipodi:end="6.2831853" />
    <path
       transform="matrix(-0.8660254,-0.5,-0.5,0.8660254,916.41714,251.69532)"
       sodipodi:type="arc"
       style="fill:#00ff00;fill-opacity:0.49803922;stroke:#000000;stroke-opacity:1"
       id="path6239-6-3-8-9-3"
       sodipodi:cx="318.89764"
       sodipodi:cy="556.29919"
       sodipodi:rx="35.433071"
       sodipodi:ry="35.433071"
       d="m 354.33072,556.29919 a 35.433071,35.433071 0 0 1 -17.71654,30.68594 l -17.71654,-30.68594 z"
       sodipodi:start="0"
       sodipodi:end="1.0471976" />
    <path
       transform="matrix(0.8660254,-0.5,0.5,0.8660254,-278.1496,251.69532)"
       sodipodi:type="arc"
       style="fill:#00ff00;fill-opacity:1;stroke:#000000;stroke-opacity:1"
       id="path6239-6-3-8-9-1"
       sodipodi:cx="318.89764"
       sodipodi:cy="556.29919"
       sodipodi:rx="35.433071"
       sodipodi:ry="35.433071"
       d="m 354.33072,556.29919 a 35.433071,35.433071 0 0 1 -17.71654,30.68594 l -17.71654,-30.68594 z"
       sodipodi:start="0"
       sodipodi:end="1.0471976" />
    <path
       transform="matrix(0.8660254,-0.5,0.5,0.8660254,-370.20742,251.69532)"
       sodipodi:type="arc"
       style="fill:#000000;fill-opacity:0.49803922;stroke:#000000;stroke-opacity:1"
       id="path6239-3-5-8-3-6"
       sodipodi:cx="318.89764"
       sodipodi:cy="556.29919"
       sodipodi:rx="35.433071"
       sodipodi:ry="35.433071"
       d="m 336.61418,586.98513 a 35.433071,35.433071 0 1 1 17.71654,-30.68594 l -35.43308,0 z"
       sodipodi:start="1.0471976"
       sodipodi:end="6.2831853" />
    <path
       transform="matrix(0.8660254,-0.5,0.5,0.8660254,-364.07023,251.69532)"
       sodipodi:type="arc"
       style="fill:#ffff00;fill-opacity:0.49803922;stroke:#000000;stroke-opacity:1"
       id="path6239-6-3-8-9-3-0"
       sodipodi:cx="318.89764"
       sodipodi:cy="556.29919"
       sodipodi:rx="35.433071"
       sodipodi:ry="35.433071"
       d="m 354.33072,556.29919 a 35.433071,35.433071 0 0 1 -17.71654,30.68594 l -17.71654,-30.68594 z"
       sodipodi:start="0"
       sodipodi:end="1.0471976" />
    <path
       transform="matrix(0,-1,1,0,-280.12574,892.91337)"
       sodipodi:type="arc"
       style="fill:#0000ff;fill-opacity:1;stroke:#000000;stroke-width:1;stroke-opacity:1"
       id="path6239-6-3-8-9-1-1"
       sodipodi:cx="318.89764"
       sodipodi:cy="556.29919"
       sodipodi:rx="35.433071"
       sodipodi:ry="35.433071"
       d="m 354.33072,556.29919 a 35.433071,35.433071 0 0 1 -17.71654,30.68594 l -17.71654,-30.68594 z"
       sodipodi:start="0"
       sodipodi:end="1.0471976" />
    <path
       transform="matrix(-0.8660254,-0.5,0.5,-0.8660254,274.19732,1215.2338)"
       sodipodi:type="arc"
       style="fill:#ff0000;fill-opacity:1;stroke:#000000;stroke-width:1;stroke-opacity:1"
       id="path6239-6-3-8-9-1-8"
       sodipodi:cx="318.89764"
       sodipodi:cy="556.29919"
       sodipodi:rx="35.433071"
       sodipodi:ry="35.433071"
       d="m 354.33072,556.29919 a 35.433071,35.433071 0 0 1 -17.71654,30.68594 l -17.71654,-30.68594 z"
       sodipodi:start="0"
       sodipodi:end="1.0471976" />
    <path
       transform="matrix(-0.8660254,0.5,-0.5,-0.8660254,830.49651,896.33614)"
       sodipodi:type="arc"
       style="fill:#ffff00;fill-opacity:1;stroke:#000000;stroke-opacity:1"
       id="path6239-6-3-8-9-1-4"
       sodipodi:cx="318.89764"
       sodipodi:cy="556.29919"
       sodipodi:rx="35.433071"
       sodipodi:ry="35.433071"
       d="m 354.33072,556.29919 a 35.433071,35.433071 0 0 1 -17.71654,30.68594 l -17.71654,-30.68594 z"
       sodipodi:start="0"
       sodipodi:end="1.0471976" />
    <path
       transform="matrix(0,1,-1,0,832.47265,255.11808)"
       sodipodi:type="arc"
       style="fill:#ff00ff;fill-opacity:1;stroke:#000000;stroke-width:1;stroke-opacity:1"
       id="path6239-6-3-8-9-1-1-5"
       sodipodi:cx="318.89764"
       sodipodi:cy="556.29919"
       sodipodi:rx="35.433071"
       sodipodi:ry="35.433071"
       d="m 354.33072,556.29919 a 35.433071,35.433071 0 0 1 -17.71654,30.68594 l -17.71654,-30.68594 z"
       sodipodi:start="0"
       sodipodi:end="1.0471976" />
    <path
       transform="matrix(0.8660254,0.5,-0.5,0.8660254,278.14959,-67.202328)"
       sodipodi:type="arc"
       style="fill:#00ffff;fill-opacity:1;stroke:#000000;stroke-width:1;stroke-opacity:1"
       id="path6239-6-3-8-9-1-8-9"
       sodipodi:cx="318.89764"
       sodipodi:cy="556.29919"
       sodipodi:rx="35.433071"
       sodipodi:ry="35.433071"
       d="m 354.33072,556.29919 a 35.433071,35.433071 0 0 1 -17.71654,30.68594 l -17.71654,-30.68594 z"
       sodipodi:start="0"
       sodipodi:end="1.0471976" />
  </g>
</svg>
